<mxfile host="Electron" agent="Mozilla/5.0 (Windows NT 10.0; Win64; x64) AppleWebKit/537.36 (KHTML, like Gecko) draw.io/24.7.8 Chrome/128.0.6613.36 Electron/32.0.1 Safari/537.36" version="24.7.8">
  <diagram name="Page-1" id="MAllqAfLBLea2LckqZOi">
    <mxGraphModel dx="1434" dy="844" grid="1" gridSize="10" guides="1" tooltips="1" connect="1" arrows="1" fold="1" page="1" pageScale="1" pageWidth="850" pageHeight="1100" math="0" shadow="0">
      <root>
        <mxCell id="0" />
        <mxCell id="1" parent="0" />
        <mxCell id="USOqtzKKuF3D1rq9zsue-1" value="&lt;b&gt;Facility 1&lt;/b&gt;" style="whiteSpace=wrap;html=1;aspect=fixed;" parent="1" vertex="1">
          <mxGeometry x="105" y="315" width="80" height="80" as="geometry" />
        </mxCell>
        <mxCell id="USOqtzKKuF3D1rq9zsue-2" value="&lt;b&gt;Facility 2&lt;/b&gt;" style="whiteSpace=wrap;html=1;aspect=fixed;" parent="1" vertex="1">
          <mxGeometry x="106" y="424" width="78" height="78" as="geometry" />
        </mxCell>
        <mxCell id="USOqtzKKuF3D1rq9zsue-3" value="&lt;b&gt;Facility n&lt;/b&gt;" style="whiteSpace=wrap;html=1;aspect=fixed;" parent="1" vertex="1">
          <mxGeometry x="105" y="565" width="80" height="80" as="geometry" />
        </mxCell>
        <mxCell id="USOqtzKKuF3D1rq9zsue-4" value="" style="endArrow=none;dashed=1;html=1;rounded=0;" parent="1" edge="1">
          <mxGeometry width="50" height="50" relative="1" as="geometry">
            <mxPoint x="145" y="555" as="sourcePoint" />
            <mxPoint x="145" y="515" as="targetPoint" />
          </mxGeometry>
        </mxCell>
        <mxCell id="USOqtzKKuF3D1rq9zsue-5" value="&lt;b&gt;Database&lt;/b&gt;" style="ellipse;whiteSpace=wrap;html=1;" parent="1" vertex="1">
          <mxGeometry x="470" y="341" width="120" height="80" as="geometry" />
        </mxCell>
        <mxCell id="USOqtzKKuF3D1rq9zsue-11" value="Database API" style="rounded=0;whiteSpace=wrap;html=1;" parent="1" vertex="1">
          <mxGeometry x="400" y="717" width="120" height="60" as="geometry" />
        </mxCell>
        <mxCell id="USOqtzKKuF3D1rq9zsue-13" value="User" style="shape=umlActor;verticalLabelPosition=bottom;verticalAlign=top;html=1;outlineConnect=0;" parent="1" vertex="1">
          <mxGeometry x="600" y="717" width="30" height="60" as="geometry" />
        </mxCell>
        <mxCell id="whZAiJy7x9WykCE-Jzfa-12" value="Connection A (SSL)" style="swimlane;fontStyle=0;childLayout=stackLayout;horizontal=1;startSize=30;horizontalStack=0;resizeParent=1;resizeParentMax=0;resizeLast=0;collapsible=1;marginBottom=0;whiteSpace=wrap;html=1;" parent="1" vertex="1">
          <mxGeometry x="168" y="67" width="160" height="80" as="geometry" />
        </mxCell>
        <mxCell id="whZAiJy7x9WykCE-Jzfa-13" value="&lt;span style=&quot;background-color: initial;&quot;&gt;- Sensor data gets sent from each facility to the database&amp;nbsp;&lt;/span&gt;" style="text;strokeColor=none;fillColor=none;align=left;verticalAlign=middle;spacingLeft=4;spacingRight=4;overflow=hidden;points=[[0,0.5],[1,0.5]];portConstraint=eastwest;rotatable=0;whiteSpace=wrap;html=1;" parent="whZAiJy7x9WykCE-Jzfa-12" vertex="1">
          <mxGeometry y="30" width="160" height="50" as="geometry" />
        </mxCell>
        <mxCell id="whZAiJy7x9WykCE-Jzfa-17" value="Connection C (SSL)" style="swimlane;fontStyle=0;childLayout=stackLayout;horizontal=1;startSize=26;horizontalStack=0;resizeParent=1;resizeParentMax=0;resizeLast=0;collapsible=1;marginBottom=0;align=center;fontSize=14;" parent="1" vertex="1">
          <mxGeometry x="348" y="67" width="160" height="130" as="geometry" />
        </mxCell>
        <mxCell id="fNKGOpvYaMVU7Y808GAE-1" value="- User credentials get sent from the database to the API for verification" style="text;strokeColor=none;fillColor=none;spacingLeft=4;spacingRight=4;overflow=hidden;rotatable=0;points=[[0,0.5],[1,0.5]];portConstraint=eastwest;fontSize=12;whiteSpace=wrap;html=1;" parent="whZAiJy7x9WykCE-Jzfa-17" vertex="1">
          <mxGeometry y="26" width="160" height="54" as="geometry" />
        </mxCell>
        <mxCell id="whZAiJy7x9WykCE-Jzfa-18" value="- Queried sensor data gets sent from the database to the API for formatting" style="text;strokeColor=none;fillColor=none;spacingLeft=4;spacingRight=4;overflow=hidden;rotatable=0;points=[[0,0.5],[1,0.5]];portConstraint=eastwest;fontSize=12;whiteSpace=wrap;html=1;" parent="whZAiJy7x9WykCE-Jzfa-17" vertex="1">
          <mxGeometry y="80" width="160" height="50" as="geometry" />
        </mxCell>
        <mxCell id="whZAiJy7x9WykCE-Jzfa-25" value="Connection D (HTTPS)" style="swimlane;fontStyle=0;childLayout=stackLayout;horizontal=1;startSize=26;horizontalStack=0;resizeParent=1;resizeParentMax=0;resizeLast=0;collapsible=1;marginBottom=0;align=center;fontSize=14;" parent="1" vertex="1">
          <mxGeometry x="523" y="67" width="160" height="230" as="geometry">
            <mxRectangle x="450" y="182" width="130" height="30" as="alternateBounds" />
          </mxGeometry>
        </mxCell>
        <mxCell id="whZAiJy7x9WykCE-Jzfa-26" value="- Username and password gets sent from the user to the API for login" style="text;strokeColor=none;fillColor=none;spacingLeft=4;spacingRight=4;overflow=hidden;rotatable=0;points=[[0,0.5],[1,0.5]];portConstraint=eastwest;fontSize=12;whiteSpace=wrap;html=1;" parent="whZAiJy7x9WykCE-Jzfa-25" vertex="1">
          <mxGeometry y="26" width="160" height="54" as="geometry" />
        </mxCell>
        <mxCell id="whZAiJy7x9WykCE-Jzfa-27" value="- An API token gets sent from the API to the user upon successful login&lt;span style=&quot;background-color: initial;&quot;&gt;&amp;nbsp;&lt;/span&gt;" style="text;strokeColor=none;fillColor=none;spacingLeft=4;spacingRight=4;overflow=hidden;rotatable=0;points=[[0,0.5],[1,0.5]];portConstraint=eastwest;fontSize=12;whiteSpace=wrap;html=1;" parent="whZAiJy7x9WykCE-Jzfa-25" vertex="1">
          <mxGeometry y="80" width="160" height="50" as="geometry" />
        </mxCell>
        <mxCell id="whZAiJy7x9WykCE-Jzfa-28" value="&lt;div&gt;- A query gets sent from the user to the API along w/ a valid API token&lt;/div&gt;" style="text;strokeColor=none;fillColor=none;spacingLeft=4;spacingRight=4;overflow=hidden;rotatable=0;points=[[0,0.5],[1,0.5]];portConstraint=eastwest;fontSize=12;whiteSpace=wrap;html=1;" parent="whZAiJy7x9WykCE-Jzfa-25" vertex="1">
          <mxGeometry y="130" width="160" height="50" as="geometry" />
        </mxCell>
        <mxCell id="whZAiJy7x9WykCE-Jzfa-33" value="- Formatted sensor data gets returned to the user from the API" style="text;strokeColor=none;fillColor=none;spacingLeft=4;spacingRight=4;overflow=hidden;rotatable=0;points=[[0,0.5],[1,0.5]];portConstraint=eastwest;fontSize=12;whiteSpace=wrap;html=1;" parent="whZAiJy7x9WykCE-Jzfa-25" vertex="1">
          <mxGeometry y="180" width="160" height="50" as="geometry" />
        </mxCell>
        <mxCell id="BFYfaFStXxI81xijr-fr-5" value="" style="rounded=0;whiteSpace=wrap;html=1;fillColor=none;dashed=1;dashPattern=1 4;" parent="1" vertex="1">
          <mxGeometry x="85" y="297" width="120" height="388" as="geometry" />
        </mxCell>
        <mxCell id="BFYfaFStXxI81xijr-fr-6" value="&lt;b&gt;&lt;font style=&quot;font-size: 14px;&quot; color=&quot;#990000&quot;&gt;Input&lt;/font&gt;&lt;/b&gt;" style="text;html=1;align=center;verticalAlign=middle;whiteSpace=wrap;rounded=0;" parent="1" vertex="1">
          <mxGeometry x="115" y="655" width="60" height="30" as="geometry" />
        </mxCell>
        <mxCell id="BFYfaFStXxI81xijr-fr-7" value="" style="rounded=0;whiteSpace=wrap;html=1;fillColor=none;dashed=1;dashPattern=1 4;" parent="1" vertex="1">
          <mxGeometry x="265" y="331" width="500" height="320" as="geometry" />
        </mxCell>
        <mxCell id="BFYfaFStXxI81xijr-fr-8" value="&lt;b&gt;&lt;font color=&quot;#990000&quot; style=&quot;font-size: 14px;&quot;&gt;Storage&lt;/font&gt;&lt;/b&gt;" style="text;html=1;align=center;verticalAlign=middle;whiteSpace=wrap;rounded=0;" parent="1" vertex="1">
          <mxGeometry x="485" y="621" width="60" height="30" as="geometry" />
        </mxCell>
        <mxCell id="BFYfaFStXxI81xijr-fr-9" value="" style="rounded=0;whiteSpace=wrap;html=1;fillColor=none;dashed=1;dashPattern=1 4;" parent="1" vertex="1">
          <mxGeometry x="385" y="707" width="260" height="130" as="geometry" />
        </mxCell>
        <mxCell id="BFYfaFStXxI81xijr-fr-10" value="&lt;b&gt;&lt;font color=&quot;#990000&quot; style=&quot;font-size: 14px;&quot;&gt;Output&lt;/font&gt;&lt;/b&gt;" style="text;html=1;align=center;verticalAlign=middle;whiteSpace=wrap;rounded=0;" parent="1" vertex="1">
          <mxGeometry x="485" y="809" width="60" height="30" as="geometry" />
        </mxCell>
        <mxCell id="BFYfaFStXxI81xijr-fr-11" value="&lt;font style=&quot;font-size: 20px;&quot;&gt;&lt;b&gt;Team GR IoT Data Aggregation Project&lt;/b&gt;&lt;/font&gt;" style="text;html=1;align=center;verticalAlign=middle;resizable=0;points=[];autosize=1;strokeColor=none;fillColor=none;" parent="1" vertex="1">
          <mxGeometry x="230" y="10" width="390" height="40" as="geometry" />
        </mxCell>
        <mxCell id="tuzLL6Tt9vCkhnduXRWb-7" value="D" style="endArrow=classic;startArrow=classic;html=1;rounded=0;exitX=1;exitY=0.5;exitDx=0;exitDy=0;entryX=0.5;entryY=0.5;entryDx=0;entryDy=0;entryPerimeter=0;fontSize=12;fontStyle=1" parent="1" source="USOqtzKKuF3D1rq9zsue-11" target="USOqtzKKuF3D1rq9zsue-13" edge="1">
          <mxGeometry width="50" height="50" relative="1" as="geometry">
            <mxPoint x="565" y="708" as="sourcePoint" />
            <mxPoint x="615" y="658" as="targetPoint" />
          </mxGeometry>
        </mxCell>
        <mxCell id="tuzLL6Tt9vCkhnduXRWb-9" value="Connection B (HTTPS)" style="swimlane;fontStyle=0;childLayout=stackLayout;horizontal=1;startSize=30;horizontalStack=0;resizeParent=1;resizeParentMax=0;resizeLast=0;collapsible=1;marginBottom=0;whiteSpace=wrap;html=1;" parent="1" vertex="1">
          <mxGeometry x="168" y="160" width="160" height="80" as="geometry" />
        </mxCell>
        <mxCell id="tuzLL6Tt9vCkhnduXRWb-10" value="- List of device failures get sent to maintenance staff via a GroupMe chat bot" style="text;strokeColor=none;fillColor=none;align=left;verticalAlign=middle;spacingLeft=4;spacingRight=4;overflow=hidden;points=[[0,0.5],[1,0.5]];portConstraint=eastwest;rotatable=0;whiteSpace=wrap;html=1;" parent="tuzLL6Tt9vCkhnduXRWb-9" vertex="1">
          <mxGeometry y="30" width="160" height="50" as="geometry" />
        </mxCell>
        <mxCell id="FOl9f6oK49mHCceWNr9b-2" value="B" style="endArrow=classic;html=1;rounded=0;exitX=0.5;exitY=1;exitDx=0;exitDy=0;entryX=0;entryY=0.5;entryDx=0;entryDy=0;edgeStyle=orthogonalEdgeStyle;fontStyle=1;fontSize=12;" edge="1" parent="1" source="BFYfaFStXxI81xijr-fr-5" target="BFYfaFStXxI81xijr-fr-9">
          <mxGeometry x="0.2661" width="50" height="50" relative="1" as="geometry">
            <mxPoint x="120" y="825" as="sourcePoint" />
            <mxPoint x="170" y="775" as="targetPoint" />
            <mxPoint as="offset" />
          </mxGeometry>
        </mxCell>
        <mxCell id="FOl9f6oK49mHCceWNr9b-5" value="Facility k Table&amp;nbsp;" style="shape=table;startSize=31;container=1;collapsible=1;childLayout=tableLayout;fixedRows=1;rowLines=0;fontStyle=1;align=center;resizeLast=1;html=1;" vertex="1" parent="1">
          <mxGeometry x="280" y="450" width="180" height="181" as="geometry" />
        </mxCell>
        <mxCell id="FOl9f6oK49mHCceWNr9b-6" value="" style="shape=tableRow;horizontal=0;startSize=0;swimlaneHead=0;swimlaneBody=0;fillColor=none;collapsible=0;dropTarget=0;points=[[0,0.5],[1,0.5]];portConstraint=eastwest;top=0;left=0;right=0;bottom=1;" vertex="1" parent="FOl9f6oK49mHCceWNr9b-5">
          <mxGeometry y="31" width="180" height="30" as="geometry" />
        </mxCell>
        <mxCell id="FOl9f6oK49mHCceWNr9b-7" value="PK" style="shape=partialRectangle;connectable=0;fillColor=none;top=0;left=0;bottom=0;right=0;fontStyle=1;overflow=hidden;whiteSpace=wrap;html=1;" vertex="1" parent="FOl9f6oK49mHCceWNr9b-6">
          <mxGeometry width="30" height="30" as="geometry">
            <mxRectangle width="30" height="30" as="alternateBounds" />
          </mxGeometry>
        </mxCell>
        <mxCell id="FOl9f6oK49mHCceWNr9b-8" value="Entry ID" style="shape=partialRectangle;connectable=0;fillColor=none;top=0;left=0;bottom=0;right=0;align=left;spacingLeft=6;fontStyle=5;overflow=hidden;whiteSpace=wrap;html=1;" vertex="1" parent="FOl9f6oK49mHCceWNr9b-6">
          <mxGeometry x="30" width="150" height="30" as="geometry">
            <mxRectangle width="150" height="30" as="alternateBounds" />
          </mxGeometry>
        </mxCell>
        <mxCell id="FOl9f6oK49mHCceWNr9b-9" value="" style="shape=tableRow;horizontal=0;startSize=0;swimlaneHead=0;swimlaneBody=0;fillColor=none;collapsible=0;dropTarget=0;points=[[0,0.5],[1,0.5]];portConstraint=eastwest;top=0;left=0;right=0;bottom=0;" vertex="1" parent="FOl9f6oK49mHCceWNr9b-5">
          <mxGeometry y="61" width="180" height="30" as="geometry" />
        </mxCell>
        <mxCell id="FOl9f6oK49mHCceWNr9b-10" value="" style="shape=partialRectangle;connectable=0;fillColor=none;top=0;left=0;bottom=0;right=0;editable=1;overflow=hidden;whiteSpace=wrap;html=1;" vertex="1" parent="FOl9f6oK49mHCceWNr9b-9">
          <mxGeometry width="30" height="30" as="geometry">
            <mxRectangle width="30" height="30" as="alternateBounds" />
          </mxGeometry>
        </mxCell>
        <mxCell id="FOl9f6oK49mHCceWNr9b-11" value="Device (Not Null)" style="shape=partialRectangle;connectable=0;fillColor=none;top=0;left=0;bottom=0;right=0;align=left;spacingLeft=6;overflow=hidden;whiteSpace=wrap;html=1;" vertex="1" parent="FOl9f6oK49mHCceWNr9b-9">
          <mxGeometry x="30" width="150" height="30" as="geometry">
            <mxRectangle width="150" height="30" as="alternateBounds" />
          </mxGeometry>
        </mxCell>
        <mxCell id="FOl9f6oK49mHCceWNr9b-12" value="" style="shape=tableRow;horizontal=0;startSize=0;swimlaneHead=0;swimlaneBody=0;fillColor=none;collapsible=0;dropTarget=0;points=[[0,0.5],[1,0.5]];portConstraint=eastwest;top=0;left=0;right=0;bottom=0;" vertex="1" parent="FOl9f6oK49mHCceWNr9b-5">
          <mxGeometry y="91" width="180" height="30" as="geometry" />
        </mxCell>
        <mxCell id="FOl9f6oK49mHCceWNr9b-13" value="" style="shape=partialRectangle;connectable=0;fillColor=none;top=0;left=0;bottom=0;right=0;editable=1;overflow=hidden;whiteSpace=wrap;html=1;" vertex="1" parent="FOl9f6oK49mHCceWNr9b-12">
          <mxGeometry width="30" height="30" as="geometry">
            <mxRectangle width="30" height="30" as="alternateBounds" />
          </mxGeometry>
        </mxCell>
        <mxCell id="FOl9f6oK49mHCceWNr9b-14" value="Temp (°C)" style="shape=partialRectangle;connectable=0;fillColor=none;top=0;left=0;bottom=0;right=0;align=left;spacingLeft=6;overflow=hidden;whiteSpace=wrap;html=1;" vertex="1" parent="FOl9f6oK49mHCceWNr9b-12">
          <mxGeometry x="30" width="150" height="30" as="geometry">
            <mxRectangle width="150" height="30" as="alternateBounds" />
          </mxGeometry>
        </mxCell>
        <mxCell id="FOl9f6oK49mHCceWNr9b-15" value="" style="shape=tableRow;horizontal=0;startSize=0;swimlaneHead=0;swimlaneBody=0;fillColor=none;collapsible=0;dropTarget=0;points=[[0,0.5],[1,0.5]];portConstraint=eastwest;top=0;left=0;right=0;bottom=0;" vertex="1" parent="FOl9f6oK49mHCceWNr9b-5">
          <mxGeometry y="121" width="180" height="30" as="geometry" />
        </mxCell>
        <mxCell id="FOl9f6oK49mHCceWNr9b-16" value="" style="shape=partialRectangle;connectable=0;fillColor=none;top=0;left=0;bottom=0;right=0;editable=1;overflow=hidden;whiteSpace=wrap;html=1;" vertex="1" parent="FOl9f6oK49mHCceWNr9b-15">
          <mxGeometry width="30" height="30" as="geometry">
            <mxRectangle width="30" height="30" as="alternateBounds" />
          </mxGeometry>
        </mxCell>
        <mxCell id="FOl9f6oK49mHCceWNr9b-17" value="RH (%)" style="shape=partialRectangle;connectable=0;fillColor=none;top=0;left=0;bottom=0;right=0;align=left;spacingLeft=6;overflow=hidden;whiteSpace=wrap;html=1;" vertex="1" parent="FOl9f6oK49mHCceWNr9b-15">
          <mxGeometry x="30" width="150" height="30" as="geometry">
            <mxRectangle width="150" height="30" as="alternateBounds" />
          </mxGeometry>
        </mxCell>
        <mxCell id="FOl9f6oK49mHCceWNr9b-22" style="shape=tableRow;horizontal=0;startSize=0;swimlaneHead=0;swimlaneBody=0;fillColor=none;collapsible=0;dropTarget=0;points=[[0,0.5],[1,0.5]];portConstraint=eastwest;top=0;left=0;right=0;bottom=0;" vertex="1" parent="FOl9f6oK49mHCceWNr9b-5">
          <mxGeometry y="151" width="180" height="30" as="geometry" />
        </mxCell>
        <mxCell id="FOl9f6oK49mHCceWNr9b-23" style="shape=partialRectangle;connectable=0;fillColor=none;top=0;left=0;bottom=0;right=0;editable=1;overflow=hidden;whiteSpace=wrap;html=1;" vertex="1" parent="FOl9f6oK49mHCceWNr9b-22">
          <mxGeometry width="30" height="30" as="geometry">
            <mxRectangle width="30" height="30" as="alternateBounds" />
          </mxGeometry>
        </mxCell>
        <mxCell id="FOl9f6oK49mHCceWNr9b-24" value="Epoch (Not Null)" style="shape=partialRectangle;connectable=0;fillColor=none;top=0;left=0;bottom=0;right=0;align=left;spacingLeft=6;overflow=hidden;whiteSpace=wrap;html=1;" vertex="1" parent="FOl9f6oK49mHCceWNr9b-22">
          <mxGeometry x="30" width="150" height="30" as="geometry">
            <mxRectangle width="150" height="30" as="alternateBounds" />
          </mxGeometry>
        </mxCell>
        <mxCell id="FOl9f6oK49mHCceWNr9b-18" value="Data Schema" style="rounded=0;whiteSpace=wrap;html=1;" vertex="1" parent="1">
          <mxGeometry x="310" y="351" width="120" height="60" as="geometry" />
        </mxCell>
        <mxCell id="FOl9f6oK49mHCceWNr9b-19" value="" style="endArrow=none;html=1;rounded=0;exitX=1;exitY=0.5;exitDx=0;exitDy=0;entryX=0;entryY=0.5;entryDx=0;entryDy=0;" edge="1" parent="1" source="FOl9f6oK49mHCceWNr9b-18" target="USOqtzKKuF3D1rq9zsue-5">
          <mxGeometry width="50" height="50" relative="1" as="geometry">
            <mxPoint x="550" y="501" as="sourcePoint" />
            <mxPoint x="600" y="451" as="targetPoint" />
          </mxGeometry>
        </mxCell>
        <mxCell id="FOl9f6oK49mHCceWNr9b-20" value="" style="endArrow=none;html=1;rounded=0;entryX=0.5;entryY=1;entryDx=0;entryDy=0;exitX=0.5;exitY=0;exitDx=0;exitDy=0;" edge="1" parent="1" source="FOl9f6oK49mHCceWNr9b-5" target="FOl9f6oK49mHCceWNr9b-18">
          <mxGeometry width="50" height="50" relative="1" as="geometry">
            <mxPoint x="430" y="561" as="sourcePoint" />
            <mxPoint x="480" y="511" as="targetPoint" />
          </mxGeometry>
        </mxCell>
        <mxCell id="FOl9f6oK49mHCceWNr9b-25" value="" style="endArrow=none;html=1;rounded=0;exitX=1;exitY=0.5;exitDx=0;exitDy=0;entryX=0.5;entryY=0;entryDx=0;entryDy=0;edgeStyle=orthogonalEdgeStyle;" edge="1" parent="1" source="USOqtzKKuF3D1rq9zsue-5" target="FOl9f6oK49mHCceWNr9b-30">
          <mxGeometry width="50" height="50" relative="1" as="geometry">
            <mxPoint x="610" y="523" as="sourcePoint" />
            <mxPoint x="633" y="450" as="targetPoint" />
          </mxGeometry>
        </mxCell>
        <mxCell id="FOl9f6oK49mHCceWNr9b-30" value="API Users Table" style="shape=table;startSize=30;container=1;collapsible=1;childLayout=tableLayout;fixedRows=1;rowLines=0;fontStyle=1;align=center;resizeLast=1;html=1;" vertex="1" parent="1">
          <mxGeometry x="560" y="450" width="180" height="143" as="geometry" />
        </mxCell>
        <mxCell id="FOl9f6oK49mHCceWNr9b-31" value="" style="shape=tableRow;horizontal=0;startSize=0;swimlaneHead=0;swimlaneBody=0;fillColor=none;collapsible=0;dropTarget=0;points=[[0,0.5],[1,0.5]];portConstraint=eastwest;top=0;left=0;right=0;bottom=1;" vertex="1" parent="FOl9f6oK49mHCceWNr9b-30">
          <mxGeometry y="30" width="180" height="23" as="geometry" />
        </mxCell>
        <mxCell id="FOl9f6oK49mHCceWNr9b-32" value="PK" style="shape=partialRectangle;connectable=0;fillColor=none;top=0;left=0;bottom=0;right=0;fontStyle=1;overflow=hidden;whiteSpace=wrap;html=1;" vertex="1" parent="FOl9f6oK49mHCceWNr9b-31">
          <mxGeometry width="30" height="23" as="geometry">
            <mxRectangle width="30" height="23" as="alternateBounds" />
          </mxGeometry>
        </mxCell>
        <mxCell id="FOl9f6oK49mHCceWNr9b-33" value="Employee ID" style="shape=partialRectangle;connectable=0;fillColor=none;top=0;left=0;bottom=0;right=0;align=left;spacingLeft=6;fontStyle=5;overflow=hidden;whiteSpace=wrap;html=1;" vertex="1" parent="FOl9f6oK49mHCceWNr9b-31">
          <mxGeometry x="30" width="150" height="23" as="geometry">
            <mxRectangle width="150" height="23" as="alternateBounds" />
          </mxGeometry>
        </mxCell>
        <mxCell id="FOl9f6oK49mHCceWNr9b-34" value="" style="shape=tableRow;horizontal=0;startSize=0;swimlaneHead=0;swimlaneBody=0;fillColor=none;collapsible=0;dropTarget=0;points=[[0,0.5],[1,0.5]];portConstraint=eastwest;top=0;left=0;right=0;bottom=0;" vertex="1" parent="FOl9f6oK49mHCceWNr9b-30">
          <mxGeometry y="53" width="180" height="30" as="geometry" />
        </mxCell>
        <mxCell id="FOl9f6oK49mHCceWNr9b-35" value="" style="shape=partialRectangle;connectable=0;fillColor=none;top=0;left=0;bottom=0;right=0;editable=1;overflow=hidden;whiteSpace=wrap;html=1;" vertex="1" parent="FOl9f6oK49mHCceWNr9b-34">
          <mxGeometry width="30" height="30" as="geometry">
            <mxRectangle width="30" height="30" as="alternateBounds" />
          </mxGeometry>
        </mxCell>
        <mxCell id="FOl9f6oK49mHCceWNr9b-36" value="Username" style="shape=partialRectangle;connectable=0;fillColor=none;top=0;left=0;bottom=0;right=0;align=left;spacingLeft=6;overflow=hidden;whiteSpace=wrap;html=1;" vertex="1" parent="FOl9f6oK49mHCceWNr9b-34">
          <mxGeometry x="30" width="150" height="30" as="geometry">
            <mxRectangle width="150" height="30" as="alternateBounds" />
          </mxGeometry>
        </mxCell>
        <mxCell id="FOl9f6oK49mHCceWNr9b-37" value="" style="shape=tableRow;horizontal=0;startSize=0;swimlaneHead=0;swimlaneBody=0;fillColor=none;collapsible=0;dropTarget=0;points=[[0,0.5],[1,0.5]];portConstraint=eastwest;top=0;left=0;right=0;bottom=0;" vertex="1" parent="FOl9f6oK49mHCceWNr9b-30">
          <mxGeometry y="83" width="180" height="30" as="geometry" />
        </mxCell>
        <mxCell id="FOl9f6oK49mHCceWNr9b-38" value="" style="shape=partialRectangle;connectable=0;fillColor=none;top=0;left=0;bottom=0;right=0;editable=1;overflow=hidden;whiteSpace=wrap;html=1;" vertex="1" parent="FOl9f6oK49mHCceWNr9b-37">
          <mxGeometry width="30" height="30" as="geometry">
            <mxRectangle width="30" height="30" as="alternateBounds" />
          </mxGeometry>
        </mxCell>
        <mxCell id="FOl9f6oK49mHCceWNr9b-39" value="Password (bcrypt)" style="shape=partialRectangle;connectable=0;fillColor=none;top=0;left=0;bottom=0;right=0;align=left;spacingLeft=6;overflow=hidden;whiteSpace=wrap;html=1;" vertex="1" parent="FOl9f6oK49mHCceWNr9b-37">
          <mxGeometry x="30" width="150" height="30" as="geometry">
            <mxRectangle width="150" height="30" as="alternateBounds" />
          </mxGeometry>
        </mxCell>
        <mxCell id="FOl9f6oK49mHCceWNr9b-40" value="" style="shape=tableRow;horizontal=0;startSize=0;swimlaneHead=0;swimlaneBody=0;fillColor=none;collapsible=0;dropTarget=0;points=[[0,0.5],[1,0.5]];portConstraint=eastwest;top=0;left=0;right=0;bottom=0;" vertex="1" parent="FOl9f6oK49mHCceWNr9b-30">
          <mxGeometry y="113" width="180" height="30" as="geometry" />
        </mxCell>
        <mxCell id="FOl9f6oK49mHCceWNr9b-41" value="" style="shape=partialRectangle;connectable=0;fillColor=none;top=0;left=0;bottom=0;right=0;editable=1;overflow=hidden;whiteSpace=wrap;html=1;" vertex="1" parent="FOl9f6oK49mHCceWNr9b-40">
          <mxGeometry width="30" height="30" as="geometry">
            <mxRectangle width="30" height="30" as="alternateBounds" />
          </mxGeometry>
        </mxCell>
        <mxCell id="FOl9f6oK49mHCceWNr9b-42" value="Login Timestamp" style="shape=partialRectangle;connectable=0;fillColor=none;top=0;left=0;bottom=0;right=0;align=left;spacingLeft=6;overflow=hidden;whiteSpace=wrap;html=1;" vertex="1" parent="FOl9f6oK49mHCceWNr9b-40">
          <mxGeometry x="30" width="150" height="30" as="geometry">
            <mxRectangle width="150" height="30" as="alternateBounds" />
          </mxGeometry>
        </mxCell>
        <mxCell id="FOl9f6oK49mHCceWNr9b-45" value="A" style="endArrow=classic;html=1;rounded=0;exitX=1;exitY=0.5;exitDx=0;exitDy=0;entryX=0;entryY=0.5;entryDx=0;entryDy=0;fontSize=12;fontStyle=1" edge="1" parent="1" source="BFYfaFStXxI81xijr-fr-5" target="BFYfaFStXxI81xijr-fr-7">
          <mxGeometry width="50" height="50" relative="1" as="geometry">
            <mxPoint x="275" y="697" as="sourcePoint" />
            <mxPoint x="325" y="647" as="targetPoint" />
          </mxGeometry>
        </mxCell>
        <mxCell id="FOl9f6oK49mHCceWNr9b-46" value="C" style="endArrow=classic;startArrow=classic;html=1;rounded=0;exitX=0.5;exitY=1;exitDx=0;exitDy=0;fontSize=12;fontStyle=1" edge="1" parent="1" source="BFYfaFStXxI81xijr-fr-7" target="BFYfaFStXxI81xijr-fr-9">
          <mxGeometry width="50" height="50" relative="1" as="geometry">
            <mxPoint x="225" y="887" as="sourcePoint" />
            <mxPoint x="275" y="837" as="targetPoint" />
          </mxGeometry>
        </mxCell>
      </root>
    </mxGraphModel>
  </diagram>
</mxfile>
